<?xml version="1.0" encoding="UTF-8"?>
<svg id="_レイヤー_1" data-name="レイヤー 1" xmlns="http://www.w3.org/2000/svg" xmlns:xlink="http://www.w3.org/1999/xlink" viewBox="0 0 250 135">
  <defs>
    <style>
      .cls-1 {
        stroke: #ffbfd6;
      }

      .cls-1, .cls-2, .cls-3, .cls-4, .cls-5, .cls-6, .cls-7 {
        fill: none;
        stroke-linecap: round;
        stroke-linejoin: round;
      }

      .cls-1, .cls-3, .cls-7 {
        stroke-width: .75px;
      }

      .cls-2, .cls-5 {
        stroke: #ffee37;
      }

      .cls-3 {
        stroke: #ffbfd7;
      }

      .cls-4 {
        stroke: url(#_名称未設定グラデーション_418);
        stroke-width: 30px;
      }

      .cls-8 {
        fill: url(#_名称未設定グラデーション_426);
      }

      .cls-5 {
        stroke-width: 4px;
      }

      .cls-6 {
        stroke: #fff;
        stroke-width: 22px;
      }

      .cls-7 {
        stroke: #bfffff;
      }
    </style>
    <linearGradient id="_名称未設定グラデーション_418" data-name="名称未設定グラデーション 418" x1="36.12" y1="76.63" x2="218.95" y2="76.63" gradientUnits="userSpaceOnUse">
      <stop offset="0" stop-color="#e124ff"/>
      <stop offset=".5" stop-color="#909cff"/>
      <stop offset="1" stop-color="#00e3ff"/>
    </linearGradient>
    <linearGradient id="_名称未設定グラデーション_426" data-name="名称未設定グラデーション 426" x1="127.53" y1="115.87" x2="127.53" y2="37.4" gradientUnits="userSpaceOnUse">
      <stop offset="0" stop-color="#0bb9d6"/>
      <stop offset=".06" stop-color="#0fafd6"/>
      <stop offset=".3" stop-color="#208ed8"/>
      <stop offset=".36" stop-color="#7286c7"/>
      <stop offset=".41" stop-color="#be80b8"/>
      <stop offset=".45" stop-color="#ed7caf"/>
      <stop offset=".47" stop-color="#ff7bac"/>
      <stop offset=".52" stop-color="#0bb9d6"/>
      <stop offset=".8" stop-color="#208ed8"/>
      <stop offset="1" stop-color="#ff7bac"/>
    </linearGradient>
  </defs>
  <g>
    <g>
      <g>
        <g>
          <path class="cls-4" d="M38.85,47.64l8.93,1.15c.13.02.26.02.39.02,1.49,0,2.78-1.1,2.97-2.62.21-1.64-.95-3.15-2.59-3.36l-8.93-1.15c-1.64-.21-3.15.95-3.36,2.59-.21,1.64.95,3.15,2.59,3.36Z"/>
          <path class="cls-4" d="M47.39,58.68c.14.02.27.03.4.03,1.48,0,2.77-1.09,2.97-2.6.22-1.64-.93-3.15-2.57-3.37l-8.67-1.16c-1.65-.23-3.15.93-3.37,2.57-.22,1.64.93,3.15,2.57,3.37l8.67,1.16Z"/>
          <path class="cls-4" d="M69.32,48.7c-1.59-.48-3.26.42-3.74,2.01-1.83,6.08-3.03,10.1-9.33,14.42-6.59,4.52-15.59,4.43-15.7,4.43-1.65-.07-3.02,1.29-3.05,2.94-.03,1.66,1.28,3.03,2.94,3.06.03,0,.1,0,.22,0,1.61,0,11.32-.23,18.99-5.48,8.04-5.51,9.73-11.13,11.68-17.64.48-1.59-.42-3.26-2.01-3.74Z"/>
        </g>
        <g>
          <path class="cls-4" d="M38.85,47.64l8.93,1.15c.13.02.26.02.39.02,1.49,0,2.78-1.1,2.97-2.62.21-1.64-.95-3.15-2.59-3.36l-8.93-1.15c-1.64-.21-3.15.95-3.36,2.59-.21,1.64.95,3.15,2.59,3.36Z"/>
          <path class="cls-4" d="M47.39,58.68c.14.02.27.03.4.03,1.48,0,2.77-1.09,2.97-2.6.22-1.64-.93-3.15-2.57-3.37l-8.67-1.16c-1.65-.23-3.15.93-3.37,2.57-.22,1.64.93,3.15,2.57,3.37l8.67,1.16Z"/>
          <path class="cls-4" d="M69.32,48.7c-1.59-.48-3.26.42-3.74,2.01-1.83,6.08-3.03,10.1-9.33,14.42-6.59,4.52-15.59,4.43-15.7,4.43-1.65-.07-3.02,1.29-3.05,2.94-.03,1.66,1.28,3.03,2.94,3.06.03,0,.1,0,.22,0,1.61,0,11.32-.23,18.99-5.48,8.04-5.51,9.73-11.13,11.68-17.64.48-1.59-.42-3.26-2.01-3.74Z"/>
        </g>
        <g>
          <path class="cls-4" d="M38.85,47.64l8.93,1.15c.13.02.26.02.39.02,1.49,0,2.78-1.1,2.97-2.62.21-1.64-.95-3.15-2.59-3.36l-8.93-1.15c-1.64-.21-3.15.95-3.36,2.59-.21,1.64.95,3.15,2.59,3.36Z"/>
          <path class="cls-4" d="M47.39,58.68c.14.02.27.03.4.03,1.48,0,2.77-1.09,2.97-2.6.22-1.64-.93-3.15-2.57-3.37l-8.67-1.16c-1.65-.23-3.15.93-3.37,2.57-.22,1.64.93,3.15,2.57,3.37l8.67,1.16Z"/>
          <path class="cls-4" d="M69.32,48.7c-1.59-.48-3.26.42-3.74,2.01-1.83,6.08-3.03,10.1-9.33,14.42-6.59,4.52-15.59,4.43-15.7,4.43-1.65-.07-3.02,1.29-3.05,2.94-.03,1.66,1.28,3.03,2.94,3.06.03,0,.1,0,.22,0,1.61,0,11.32-.23,18.99-5.48,8.04-5.51,9.73-11.13,11.68-17.64.48-1.59-.42-3.26-2.01-3.74Z"/>
        </g>
      </g>
      <path class="cls-4" d="M114.82,70.23c.58.85,1.52,1.3,2.48,1.3.59,0,1.18-.17,1.7-.53,10.09-6.93,9-26.48,8.95-27.31-.1-1.65-1.51-2.91-3.18-2.81-1.65.1-2.91,1.52-2.81,3.18.28,4.71-.31,17.84-6.36,21.99-1.37.94-1.71,2.81-.77,4.17Z"/>
      <path class="cls-4" d="M135.39,72.25c.18,0,.36-.02.54-.05.49-.09,12.03-2.29,16.95-11.89.76-1.47.17-3.28-1.3-4.04-1.47-.76-3.28-.17-4.04,1.3-2.12,4.13-6.19,6.43-9.15,7.62v-24.05c0-1.66-1.34-3-3-3s-3,1.34-3,3v28.11c0,.89.39,1.73,1.08,2.3.54.45,1.22.7,1.92.7Z"/>
      <path class="cls-4" d="M175.26,65.82c-1.36-.95-3.23-.61-4.18.75-.95,1.36-.61,3.23.75,4.18,3.98,2.77,6.44,3.43,7.94,3.43.97,0,1.53-.27,1.85-.42,5.88-2.84,5.32-20.11,5.31-20.29-.29-4.39-2.62-7.26-6.36-7.89-1.94-.32-5.25-.22-8.78.05.48-2.25.75-3.73.79-3.95.29-1.63-.79-3.19-2.42-3.48-1.62-.29-3.19.79-3.48,2.42-.01.07-.42,2.33-1.17,5.63-4.1.48-7.55,1-8.34,1.12-1.64.25-2.76,1.78-2.51,3.42.25,1.64,1.79,2.76,3.42,2.51,1.7-.26,3.75-.55,5.91-.82-1.49,5.63-3.54,12.01-5.97,16.15-.84,1.43-.36,3.27,1.07,4.11.48.28,1,.41,1.51.41,1.03,0,2.03-.53,2.59-1.48,3.1-5.28,5.56-13.42,7.18-19.89,3.99-.38,7.58-.56,9.21-.29.46.08,1.22.21,1.37,2.38.27,4.05-.65,11.7-1.84,14.11-.97-.38-2.55-1.25-3.84-2.15Z"/>
      <path class="cls-4" d="M198.86,57.82c.3.12.61.17.91.17,1,0,1.94-.6,2.33-1.59.5-1.28-.13-2.74-1.41-3.24-1.88-.74-3.91-1.8-4.86-2.51.87-1.2,3.15-3.37,5.47-5.17,1.09-.84,1.29-2.41.45-3.51-.84-1.09-2.41-1.29-3.51-.45-5.26,4.07-7.86,7.31-7.71,9.63.06.86.22,3.48,8.32,6.65Z"/>
      <path class="cls-4" d="M218.87,63.7c-.15-1.1-1.17-1.86-2.25-1.71-1.09.15-1.86,1.16-1.71,2.25.1.76.04,2.74-.51,3.37-.07.08-.18.21-.61.21-1.11,0-1.77-3.03-2.07-4.65-.15-.79-1.01-1.7-1.9-1.71-.94-.01-2.79,1.12-4.17,4.67.66-2.85,2.54-6.83,3.33-7.56.81-.76.85-2.02.09-2.83-.75-.81-2.02-.85-2.83-.09-2.5,2.34-4.46,9.94-4.18,13.02.11,1.23.57,2.11,1.35,2.62.33.21.71.32,1.08.32.57,0,1.59-.21,2.35-.91.67-.61,1.92-3.07,1.92-3.07.92,2.13,2.51,3.98,5.05,3.98,1.46,0,2.72-.55,3.62-1.58,1.93-2.21,1.49-5.9,1.44-6.31ZM206.07,68.49h0,0Z"/>
      <g>
        <g>
          <path class="cls-4" d="M166.09,89.92c-.37-.52-.93-.91-1.61-1.03-2.34-.41-3.9-1.17-6.91-2.7-1.74-.88-4.2-3.23-5.58-4.14-2.51-1.66-3.52-4.03-6.75-.87-4.39,3.55-6.5,5.07-8.2,6.04-1.69.98-2.97,1.41-5.66,2.77l-.06.03-.06.03c-.62.31-1.05.84-1.25,1.45s-.17,1.29.15,1.91c.22.43.55.78.94,1.01s.84.36,1.29.36c.19,0,.38-.02.57-.07s.38-.11.56-.2l.06-.03.06-.03c2.87-1.45,4.38-2.24,6.23-3.51,1.85-1.27,4.04-3.03,8.25-6.44,1.57,1.39,4.05,3.47,6.84,5.32,2.79,1.86,5.88,3.49,8.65,3.97.07.01.15.02.22.03s.14,0,.22,0c.6,0,1.16-.21,1.6-.58s.76-.88.86-1.49c.12-.68-.05-1.34-.41-1.87Z"/>
          <path class="cls-4" d="M155.25,96.35c1.38,0,2.5-1.12,2.5-2.5s-1.12-2.5-2.5-2.5h-14.06c-1.38,0-2.5,1.12-2.5,2.5s1.12,2.5,2.5,2.5h14.06Z"/>
          <path class="cls-4" d="M157.52,104.31c-1.14-1.01-2.69-1.21-3.4-.79-1.19.7-.79,2.27.07,3.34.07.09.14.18.21.27-4.64,1.29-9.48,2.8-12.34,3.31,1.17-2.1,3.62-4.39,6.16-7.13.08-.08.14-.17.2-.26h12.6c1.38,0,2.5-1.12,2.5-2.5s-1.12-2.5-2.5-2.5h-25.6c-1.38,0-2.5,1.12-2.5,2.5s1.12,2.5,2.5,2.5h7.79c-3.92,3.88-7.71,7.2-6.27,10.38.48,1.06,1.1,1.6,2.8,1.6s4.65-.56,9.72-1.69c3.16-.7,6.31-1.47,8.05-1.89,1.2,1.83,1.84,3.05,1.85,3.07.45.86,1.32,1.35,2.22,1.35.39,0,.78-.09,1.15-.28,1.22-.64,1.7-2.15,1.06-3.37-.08-.16-1.93-4.04-6.29-7.9Z"/>
        </g>
        <g>
          <path class="cls-4" d="M166.09,89.92c-.37-.52-.93-.91-1.61-1.03-2.34-.41-3.9-1.17-6.91-2.7-1.74-.88-4.2-3.23-5.58-4.14-2.51-1.66-3.52-4.03-6.75-.87-4.39,3.55-6.5,5.07-8.2,6.04-1.69.98-2.97,1.41-5.66,2.77l-.06.03-.06.03c-.62.31-1.05.84-1.25,1.45s-.17,1.29.15,1.91c.22.43.55.78.94,1.01s.84.36,1.29.36c.19,0,.38-.02.57-.07s.38-.11.56-.2l.06-.03.06-.03c2.87-1.45,4.38-2.24,6.23-3.51,1.85-1.27,4.04-3.03,8.25-6.44,1.57,1.39,4.05,3.47,6.84,5.32,2.79,1.86,5.88,3.49,8.65,3.97.07.01.15.02.22.03s.14,0,.22,0c.6,0,1.16-.21,1.6-.58s.76-.88.86-1.49c.12-.68-.05-1.34-.41-1.87Z"/>
          <path class="cls-4" d="M155.25,96.35c1.38,0,2.5-1.12,2.5-2.5s-1.12-2.5-2.5-2.5h-14.06c-1.38,0-2.5,1.12-2.5,2.5s1.12,2.5,2.5,2.5h14.06Z"/>
          <path class="cls-4" d="M157.52,104.31c-1.14-1.01-2.69-1.21-3.4-.79-1.19.7-.79,2.27.07,3.34.07.09.14.18.21.27-4.64,1.29-9.48,2.8-12.34,3.31,1.17-2.1,3.62-4.39,6.16-7.13.08-.08.14-.17.2-.26h12.6c1.38,0,2.5-1.12,2.5-2.5s-1.12-2.5-2.5-2.5h-25.6c-1.38,0-2.5,1.12-2.5,2.5s1.12,2.5,2.5,2.5h7.79c-3.92,3.88-7.71,7.2-6.27,10.38.48,1.06,1.1,1.6,2.8,1.6s4.65-.56,9.72-1.69c3.16-.7,6.31-1.47,8.05-1.89,1.2,1.83,1.84,3.05,1.85,3.07.45.86,1.32,1.35,2.22,1.35.39,0,.78-.09,1.15-.28,1.22-.64,1.7-2.15,1.06-3.37-.08-.16-1.93-4.04-6.29-7.9Z"/>
        </g>
        <g>
          <path class="cls-4" d="M166.09,89.92c-.37-.52-.93-.91-1.61-1.03-2.34-.41-3.9-1.17-6.91-2.7-1.74-.88-4.2-3.23-5.58-4.14-2.51-1.66-3.52-4.03-6.75-.87-4.39,3.55-6.5,5.07-8.2,6.04-1.69.98-2.97,1.41-5.66,2.77l-.06.03-.06.03c-.62.31-1.05.84-1.25,1.45s-.17,1.29.15,1.91c.22.43.55.78.94,1.01s.84.36,1.29.36c.19,0,.38-.02.57-.07s.38-.11.56-.2l.06-.03.06-.03c2.87-1.45,4.38-2.24,6.23-3.51,1.85-1.27,4.04-3.03,8.25-6.44,1.57,1.39,4.05,3.47,6.84,5.32,2.79,1.86,5.88,3.49,8.65,3.97.07.01.15.02.22.03s.14,0,.22,0c.6,0,1.16-.21,1.6-.58s.76-.88.86-1.49c.12-.68-.05-1.34-.41-1.87Z"/>
          <path class="cls-4" d="M155.25,96.35c1.38,0,2.5-1.12,2.5-2.5s-1.12-2.5-2.5-2.5h-14.06c-1.38,0-2.5,1.12-2.5,2.5s1.12,2.5,2.5,2.5h14.06Z"/>
          <path class="cls-4" d="M157.52,104.31c-1.14-1.01-2.69-1.21-3.4-.79-1.19.7-.79,2.27.07,3.34.07.09.14.18.21.27-4.64,1.29-9.48,2.8-12.34,3.31,1.17-2.1,3.62-4.39,6.16-7.13.08-.08.14-.17.2-.26h12.6c1.38,0,2.5-1.12,2.5-2.5s-1.12-2.5-2.5-2.5h-25.6c-1.38,0-2.5,1.12-2.5,2.5s1.12,2.5,2.5,2.5h7.79c-3.92,3.88-7.71,7.2-6.27,10.38.48,1.06,1.1,1.6,2.8,1.6s4.65-.56,9.72-1.69c3.16-.7,6.31-1.47,8.05-1.89,1.2,1.83,1.84,3.05,1.85,3.07.45.86,1.32,1.35,2.22,1.35.39,0,.78-.09,1.15-.28,1.22-.64,1.7-2.15,1.06-3.37-.08-.16-1.93-4.04-6.29-7.9Z"/>
        </g>
      </g>
      <path class="cls-4" d="M197.23,81.46c-14.24-5.19-25.19,7.41-25.65,7.95-.72.84-.61,2.1.22,2.82.84.72,2.1.62,2.82-.22.39-.45,9.63-11.02,21.23-6.79,4.93,1.79,10.77,7.82,11.62,14.43.1.8.87,7.83-3.91,9.4-3.52,1.16-5.48-2.63-5.68-3.06-.34-.73-1.09-1.17-1.91-1.14-.81.04-1.52.57-1.79,1.33-.05.13-1.16,3.2-3.96,3.09-2.82-.12-3.76-2.69-3.85-2.96-.27-.87-1.09-1.45-2.02-1.4-.91.05-1.68.71-1.85,1.61-.02.11-.57,2.73-3.9,2.77h-.06c-2.99,0-3.57-2.54-3.66-3.04-.16-1.09-1.18-1.85-2.27-1.68-1.09.16-1.85,1.18-1.68,2.27.33,2.24,2.36,6.45,7.61,6.45h.11c2.78-.03,4.69-1.14,5.93-2.49,1.17,1.23,2.92,2.35,5.47,2.46,2.94.15,4.93-1.3,6.17-2.78,1.89,1.98,4.84,3.6,8.61,2.36,5.94-1.96,7.28-8.61,6.62-13.71-1.06-8.2-8.06-15.43-14.22-17.67Z"/>
      <path class="cls-4" d="M81.19,71.78c2.14,1.75,4.91,2.62,8.83,2.62,3.35,0,7.55-.63,12.93-1.88,1.61-.38,2.62-1.99,2.24-3.6-.38-1.61-1.99-2.62-3.6-2.24-9.12,2.12-14.4,2.27-16.61.46-2.01-1.64-2.53-5.91-2.57-11.99.04,0,.07.01.11.01.07,0,.14,0,.22,0l16.02-1.15c.74-.05,1.39-.38,1.88-.86l-.07.4c-.01.08-.02.17-.02.26,0,1,.62,1.89,1.55,2.26.29.11.59.17.88.17.67,0,1.33-.28,1.84-.82l2.8-3.28,4.06,1.38s.09.03.13.04c1.01.24,2.03-.16,2.61-1.02s.56-1.96-.06-2.8c-.03-.04-.06-.07-.09-.11l-2.48-2.82,2.46-2.58c.63-.74.75-1.77.31-2.63-.44-.86-1.35-1.36-2.32-1.27-.08,0-.15.02-.23.04l-3.93.98-2.12-2.96s-.06-.08-.1-.12c-.61-.69-1.55-.98-2.44-.76-.89.22-1.59.91-1.81,1.8-.03.11-.04.22-.05.33l-.09,3.49-3.8,1.45c-.05.02-.1.04-.15.07-.84.43-1.35,1.33-1.28,2.27.03.46.2.89.46,1.24l-14.23,1.02c.03-1.09.06-2.22.09-3.38l.05-1.62c.05-1.66-1.26-3.04-2.92-3.08-1.69-.05-3.04,1.26-3.08,2.92l-.05,1.62c-.39,13.67-.62,21.92,4.59,26.18ZM103.51,45.53c.57-.22.95-.76.96-1.36l.07-2.68,1.72,2.4c.36.5.99.73,1.58.58l2.65-.66-1.8,1.89c-.54.56-.55,1.44-.04,2.02l1.96,2.23-2.98-1.02c-.58-.2-1.23-.02-1.63.45l-2.1,2.47.52-3.1c.13-.79-.38-1.55-1.17-1.71l-2.38-.5,2.64-1.01Z"/>
      <path class="cls-4" d="M80.44,105.72c-1.09-.17-2.11.59-2.27,1.68-.05.31-.54,3.04-3.65,3.04h-.06c-3.13-.04-3.81-2.33-3.9-2.77-.17-.89-.93-1.54-1.84-1.6-.92-.06-1.74.51-2.03,1.37-.1.29-1.04,2.85-3.85,2.98-2.78.08-3.92-2.96-3.96-3.08-.26-.77-.96-1.3-1.77-1.35-.81-.06-1.57.4-1.92,1.13-.21.44-2.16,4.24-5.69,3.07-4.77-1.58-4.01-8.61-3.91-9.4.85-6.6,6.7-12.63,11.62-14.43,11.59-4.22,20.82,6.31,21.23,6.78.72.84,1.98.94,2.82.22.84-.72.94-1.98.23-2.82-.46-.54-11.41-13.13-25.65-7.95-6.16,2.24-13.16,9.47-14.22,17.67-.66,5.1.68,11.75,6.62,13.71,3.77,1.24,6.72-.38,8.61-2.36,1.24,1.47,3.22,2.92,6.17,2.78,2.55-.11,4.31-1.24,5.47-2.46,1.24,1.34,3.15,2.46,5.93,2.49.04,0,.07,0,.11,0,5.25,0,7.27-4.21,7.6-6.45.16-1.09-.59-2.11-1.68-2.27Z"/>
      <path class="cls-4" d="M128.49,104.7c.01-1.19-1.07-1.83-2.45-1.83h-15.15v-1.04h13.78c1.09,0,2.04-.74,2.26-1.75h0c.27-1.19-.69-2.31-1.97-2.31h-12.42c-.28,0-.5-.21-.5-.48s.22-.48.5-.48h9.45c1.19,0,2.16-.92,2.17-2.05v-.03c0-.95-.82-1.73-1.82-1.73h-9.8c-.28,0-.5-.21-.5-.48s.22-.48.5-.48h9.47c1.18,0,2.15-.91,2.15-2.04,0-.83-.81-1.49-1.67-1.49h-9.94c-.28,0-.5-.21-.5-.48s.22-.48.5-.48h10.38c1.47,0,2.53-1.34,2.14-2.68-.32-1.07-1.35-1.82-2.52-1.82h-9.46c-.06,0-.06,0-.06,0,1.03-1.26.5-3.16-1.2-3.72-1.07-.35-2.25.11-2.89,1-.67.92-1.19,1.85-1.6,2.73h-5.78l.26-.3c.75-.85.9-2.11.2-3.01-1-1.3-2.93-1.3-3.95-.15l-9.99,11.29c-.69.78-.84,2.15-.23,2.97.52.69,1.29,1.02,2.06,1.02.71,0,1.42-.29,1.91-.85l2.1-2.38v7.07c0,.12.02.23.04.35-.02.12-.04.23-.04.35,0,1.31,1.12,2.38,2.5,2.38h9.48s0,1.03,0,1.03h-13.75c-1.38,0-2.46.71-2.45,1.86.01,1.09,1.07,1.9,2.45,1.9h12c-2.99,1.61-6.42,2.83-8.96,2.83-1.45,0-3.72.35-4.28,2.3-.41,1.42.8,2.77,2.34,2.76,3.88-.02,9.26-2.68,12.65-4.6v2.23c0,1.31,1.12,2.38,2.5,2.38s2.5-1.06,2.5-2.38v-2.89c3.32,2.32,9.85,6.18,15.15,5.08,1.23-.26,2.05-1.43,1.76-2.6-.44-1.7-2.23-1.96-3.72-1.96-3.09,0-7.54-1.65-10.39-3.14h12.36c1.38,0,2.44-.71,2.45-1.93ZM106.77,97.77h-8.52c-.28,0-.5-.21-.5-.48s.22-.48.5-.48h8.52c.28,0,.5.21.5.48s-.22.48-.5.48ZM106.77,93.01h-8.52c-.28,0-.5-.21-.5-.48s.22-.48.5-.48h8.52c.28,0,.5.21.5.48s-.22.48-.5.48ZM106.83,88.53h-8.52c-.28,0-.5-.21-.5-.48s.22-.48.5-.48h8.52c.28,0,.5.21.5.48s-.22.48-.5.48Z"/>
    </g>
    <g>
      <g>
        <g>
          <path class="cls-6" d="M38.85,47.64l8.93,1.15c.13.02.26.02.39.02,1.49,0,2.78-1.1,2.97-2.62.21-1.64-.95-3.15-2.59-3.36l-8.93-1.15c-1.64-.21-3.15.95-3.36,2.59-.21,1.64.95,3.15,2.59,3.36Z"/>
          <path class="cls-6" d="M47.39,58.68c.14.02.27.03.4.03,1.48,0,2.77-1.09,2.97-2.6.22-1.64-.93-3.15-2.57-3.37l-8.67-1.16c-1.65-.23-3.15.93-3.37,2.57-.22,1.64.93,3.15,2.57,3.37l8.67,1.16Z"/>
          <path class="cls-6" d="M69.32,48.7c-1.59-.48-3.26.42-3.74,2.01-1.83,6.08-3.03,10.1-9.33,14.42-6.59,4.52-15.59,4.43-15.7,4.43-1.65-.07-3.02,1.29-3.05,2.94-.03,1.66,1.28,3.03,2.94,3.06.03,0,.1,0,.22,0,1.61,0,11.32-.23,18.99-5.48,8.04-5.51,9.73-11.13,11.68-17.64.48-1.59-.42-3.26-2.01-3.74Z"/>
        </g>
        <g>
          <path class="cls-6" d="M38.85,47.64l8.93,1.15c.13.02.26.02.39.02,1.49,0,2.78-1.1,2.97-2.62.21-1.64-.95-3.15-2.59-3.36l-8.93-1.15c-1.64-.21-3.15.95-3.36,2.59-.21,1.64.95,3.15,2.59,3.36Z"/>
          <path class="cls-6" d="M47.39,58.68c.14.02.27.03.4.03,1.48,0,2.77-1.09,2.97-2.6.22-1.64-.93-3.15-2.57-3.37l-8.67-1.16c-1.65-.23-3.15.93-3.37,2.57-.22,1.64.93,3.15,2.57,3.37l8.67,1.16Z"/>
          <path class="cls-6" d="M69.32,48.7c-1.59-.48-3.26.42-3.74,2.01-1.83,6.08-3.03,10.1-9.33,14.42-6.59,4.52-15.59,4.43-15.7,4.43-1.65-.07-3.02,1.29-3.05,2.94-.03,1.66,1.28,3.03,2.94,3.06.03,0,.1,0,.22,0,1.61,0,11.32-.23,18.99-5.48,8.04-5.51,9.73-11.13,11.68-17.64.48-1.59-.42-3.26-2.01-3.74Z"/>
        </g>
        <g>
          <path class="cls-6" d="M38.85,47.64l8.93,1.15c.13.02.26.02.39.02,1.49,0,2.78-1.1,2.97-2.62.21-1.64-.95-3.15-2.59-3.36l-8.93-1.15c-1.64-.21-3.15.95-3.36,2.59-.21,1.64.95,3.15,2.59,3.36Z"/>
          <path class="cls-6" d="M47.39,58.68c.14.02.27.03.4.03,1.48,0,2.77-1.09,2.97-2.6.22-1.64-.93-3.15-2.57-3.37l-8.67-1.16c-1.65-.23-3.15.93-3.37,2.57-.22,1.64.93,3.15,2.57,3.37l8.67,1.16Z"/>
          <path class="cls-6" d="M69.32,48.7c-1.59-.48-3.26.42-3.74,2.01-1.83,6.08-3.03,10.1-9.33,14.42-6.59,4.52-15.59,4.43-15.7,4.43-1.65-.07-3.02,1.29-3.05,2.94-.03,1.66,1.28,3.03,2.94,3.06.03,0,.1,0,.22,0,1.61,0,11.32-.23,18.99-5.48,8.04-5.51,9.73-11.13,11.68-17.64.48-1.59-.42-3.26-2.01-3.74Z"/>
        </g>
      </g>
      <path class="cls-6" d="M114.82,70.23c.58.85,1.52,1.3,2.48,1.3.59,0,1.18-.17,1.7-.53,10.09-6.93,9-26.48,8.95-27.31-.1-1.65-1.51-2.91-3.18-2.81-1.65.1-2.91,1.52-2.81,3.18.28,4.71-.31,17.84-6.36,21.99-1.37.94-1.71,2.81-.77,4.17Z"/>
      <path class="cls-6" d="M135.39,72.25c.18,0,.36-.02.54-.05.49-.09,12.03-2.29,16.95-11.89.76-1.47.17-3.28-1.3-4.04-1.47-.76-3.28-.17-4.04,1.3-2.12,4.13-6.19,6.43-9.15,7.62v-24.05c0-1.66-1.34-3-3-3s-3,1.34-3,3v28.11c0,.89.39,1.73,1.08,2.3.54.45,1.22.7,1.92.7Z"/>
      <path class="cls-6" d="M175.26,65.82c-1.36-.95-3.23-.61-4.18.75-.95,1.36-.61,3.23.75,4.18,3.98,2.77,6.44,3.43,7.94,3.43.97,0,1.53-.27,1.85-.42,5.88-2.84,5.32-20.11,5.31-20.29-.29-4.39-2.62-7.26-6.36-7.89-1.94-.32-5.25-.22-8.78.05.48-2.25.75-3.73.79-3.95.29-1.63-.79-3.19-2.42-3.48-1.62-.29-3.19.79-3.48,2.42-.01.07-.42,2.33-1.17,5.63-4.1.48-7.55,1-8.34,1.12-1.64.25-2.76,1.78-2.51,3.42.25,1.64,1.79,2.76,3.42,2.51,1.7-.26,3.75-.55,5.91-.82-1.49,5.63-3.54,12.01-5.97,16.15-.84,1.43-.36,3.27,1.07,4.11.48.28,1,.41,1.51.41,1.03,0,2.03-.53,2.59-1.48,3.1-5.28,5.56-13.42,7.18-19.89,3.99-.38,7.58-.56,9.21-.29.46.08,1.22.21,1.37,2.38.27,4.05-.65,11.7-1.84,14.11-.97-.38-2.55-1.25-3.84-2.15Z"/>
      <path class="cls-6" d="M198.86,57.82c.3.12.61.17.91.17,1,0,1.94-.6,2.33-1.59.5-1.28-.13-2.74-1.41-3.24-1.88-.74-3.91-1.8-4.86-2.51.87-1.2,3.15-3.37,5.47-5.17,1.09-.84,1.29-2.41.45-3.51-.84-1.09-2.41-1.29-3.51-.45-5.26,4.07-7.86,7.31-7.71,9.63.06.86.22,3.48,8.32,6.65Z"/>
      <path class="cls-6" d="M218.87,63.7c-.15-1.1-1.17-1.86-2.25-1.71-1.09.15-1.86,1.16-1.71,2.25.1.76.04,2.74-.51,3.37-.07.08-.18.21-.61.21-1.11,0-1.77-3.03-2.07-4.65-.15-.79-1.01-1.7-1.9-1.71-.94-.01-2.79,1.12-4.17,4.67.66-2.85,2.54-6.83,3.33-7.56.81-.76.85-2.02.09-2.83-.75-.81-2.02-.85-2.83-.09-2.5,2.34-4.46,9.94-4.18,13.02.11,1.23.57,2.11,1.35,2.62.33.21.71.32,1.08.32.57,0,1.59-.21,2.35-.91.67-.61,1.92-3.07,1.92-3.07.92,2.13,2.51,3.98,5.05,3.98,1.46,0,2.72-.55,3.62-1.58,1.93-2.21,1.49-5.9,1.44-6.31ZM206.07,68.49h0,0Z"/>
      <g>
        <g>
          <path class="cls-6" d="M166.09,89.92c-.37-.52-.93-.91-1.61-1.03-2.34-.41-3.9-1.17-6.91-2.7-1.74-.88-4.2-3.23-5.58-4.14-2.51-1.66-3.52-4.03-6.75-.87-4.39,3.55-6.5,5.07-8.2,6.04-1.69.98-2.97,1.41-5.66,2.77l-.06.03-.06.03c-.62.31-1.05.84-1.25,1.45s-.17,1.29.15,1.91c.22.43.55.78.94,1.01s.84.36,1.29.36c.19,0,.38-.02.57-.07s.38-.11.56-.2l.06-.03.06-.03c2.87-1.45,4.38-2.24,6.23-3.51,1.85-1.27,4.04-3.03,8.25-6.44,1.57,1.39,4.05,3.47,6.84,5.32,2.79,1.86,5.88,3.49,8.65,3.97.07.01.15.02.22.03s.14,0,.22,0c.6,0,1.16-.21,1.6-.58s.76-.88.86-1.49c.12-.68-.05-1.34-.41-1.87Z"/>
          <path class="cls-6" d="M155.25,96.35c1.38,0,2.5-1.12,2.5-2.5s-1.12-2.5-2.5-2.5h-14.06c-1.38,0-2.5,1.12-2.5,2.5s1.12,2.5,2.5,2.5h14.06Z"/>
          <path class="cls-6" d="M157.52,104.31c-1.14-1.01-2.69-1.21-3.4-.79-1.19.7-.79,2.27.07,3.34.07.09.14.18.21.27-4.64,1.29-9.48,2.8-12.34,3.31,1.17-2.1,3.62-4.39,6.16-7.13.08-.08.14-.17.2-.26h12.6c1.38,0,2.5-1.12,2.5-2.5s-1.12-2.5-2.5-2.5h-25.6c-1.38,0-2.5,1.12-2.5,2.5s1.12,2.5,2.5,2.5h7.79c-3.92,3.88-7.71,7.2-6.27,10.38.48,1.06,1.1,1.6,2.8,1.6s4.65-.56,9.72-1.69c3.16-.7,6.31-1.47,8.05-1.89,1.2,1.83,1.84,3.05,1.85,3.07.45.86,1.32,1.35,2.22,1.35.39,0,.78-.09,1.15-.28,1.22-.64,1.7-2.15,1.06-3.37-.08-.16-1.93-4.04-6.29-7.9Z"/>
        </g>
        <g>
          <path class="cls-6" d="M166.09,89.92c-.37-.52-.93-.91-1.61-1.03-2.34-.41-3.9-1.17-6.91-2.7-1.74-.88-4.2-3.23-5.58-4.14-2.51-1.66-3.52-4.03-6.75-.87-4.39,3.55-6.5,5.07-8.2,6.04-1.69.98-2.97,1.41-5.66,2.77l-.06.03-.06.03c-.62.31-1.05.84-1.25,1.45s-.17,1.29.15,1.91c.22.43.55.78.94,1.01s.84.36,1.29.36c.19,0,.38-.02.57-.07s.38-.11.56-.2l.06-.03.06-.03c2.87-1.45,4.38-2.24,6.23-3.51,1.85-1.27,4.04-3.03,8.25-6.44,1.57,1.39,4.05,3.47,6.84,5.32,2.79,1.86,5.88,3.49,8.65,3.97.07.01.15.02.22.03s.14,0,.22,0c.6,0,1.16-.21,1.6-.58s.76-.88.86-1.49c.12-.68-.05-1.34-.41-1.87Z"/>
          <path class="cls-6" d="M155.25,96.35c1.38,0,2.5-1.12,2.5-2.5s-1.12-2.5-2.5-2.5h-14.06c-1.38,0-2.5,1.12-2.5,2.5s1.12,2.5,2.5,2.5h14.06Z"/>
          <path class="cls-6" d="M157.52,104.31c-1.14-1.01-2.69-1.21-3.4-.79-1.19.7-.79,2.27.07,3.34.07.09.14.18.21.27-4.64,1.29-9.48,2.8-12.34,3.31,1.17-2.1,3.62-4.39,6.16-7.13.08-.08.14-.17.2-.26h12.6c1.38,0,2.5-1.12,2.5-2.5s-1.12-2.5-2.5-2.5h-25.6c-1.38,0-2.5,1.12-2.5,2.5s1.12,2.5,2.5,2.5h7.79c-3.92,3.88-7.71,7.2-6.27,10.38.48,1.06,1.1,1.6,2.8,1.6s4.65-.56,9.72-1.69c3.16-.7,6.31-1.47,8.05-1.89,1.2,1.83,1.84,3.05,1.85,3.07.45.86,1.32,1.35,2.22,1.35.39,0,.78-.09,1.15-.28,1.22-.64,1.7-2.15,1.06-3.37-.08-.16-1.93-4.04-6.29-7.9Z"/>
        </g>
        <g>
          <path class="cls-6" d="M166.09,89.92c-.37-.52-.93-.91-1.61-1.03-2.34-.41-3.9-1.17-6.91-2.7-1.74-.88-4.2-3.23-5.58-4.14-2.51-1.66-3.52-4.03-6.75-.87-4.39,3.55-6.5,5.07-8.2,6.04-1.69.98-2.97,1.41-5.66,2.77l-.06.03-.06.03c-.62.31-1.05.84-1.25,1.45s-.17,1.29.15,1.91c.22.43.55.78.94,1.01s.84.36,1.29.36c.19,0,.38-.02.57-.07s.38-.11.56-.2l.06-.03.06-.03c2.87-1.45,4.38-2.24,6.23-3.51,1.85-1.27,4.04-3.03,8.25-6.44,1.57,1.39,4.05,3.47,6.84,5.32,2.79,1.86,5.88,3.49,8.65,3.97.07.01.15.02.22.03s.14,0,.22,0c.6,0,1.16-.21,1.6-.58s.76-.88.86-1.49c.12-.68-.05-1.34-.41-1.87Z"/>
          <path class="cls-6" d="M155.25,96.35c1.38,0,2.5-1.12,2.5-2.5s-1.12-2.5-2.5-2.5h-14.06c-1.38,0-2.5,1.12-2.5,2.5s1.12,2.5,2.5,2.5h14.06Z"/>
          <path class="cls-6" d="M157.52,104.31c-1.14-1.01-2.69-1.21-3.4-.79-1.19.7-.79,2.27.07,3.34.07.09.14.18.21.27-4.64,1.29-9.48,2.8-12.34,3.31,1.17-2.1,3.62-4.39,6.16-7.13.08-.08.14-.17.2-.26h12.6c1.38,0,2.5-1.12,2.5-2.5s-1.12-2.5-2.5-2.5h-25.6c-1.38,0-2.5,1.12-2.5,2.5s1.12,2.5,2.5,2.5h7.79c-3.92,3.88-7.71,7.2-6.27,10.38.48,1.06,1.1,1.6,2.8,1.6s4.65-.56,9.72-1.69c3.16-.7,6.31-1.47,8.05-1.89,1.2,1.83,1.84,3.05,1.85,3.07.45.86,1.32,1.35,2.22,1.35.39,0,.78-.09,1.15-.28,1.22-.64,1.7-2.15,1.06-3.37-.08-.16-1.93-4.04-6.29-7.9Z"/>
        </g>
      </g>
      <path class="cls-6" d="M197.23,81.46c-14.24-5.19-25.19,7.41-25.65,7.95-.72.84-.61,2.1.22,2.82.84.72,2.1.62,2.82-.22.39-.45,9.63-11.02,21.23-6.79,4.93,1.79,10.77,7.82,11.62,14.43.1.8.87,7.83-3.91,9.4-3.52,1.16-5.48-2.63-5.68-3.06-.34-.73-1.09-1.17-1.91-1.14-.81.04-1.52.57-1.79,1.33-.05.13-1.16,3.2-3.96,3.09-2.82-.12-3.76-2.69-3.85-2.96-.27-.87-1.09-1.45-2.02-1.4-.91.05-1.68.71-1.85,1.61-.02.11-.57,2.73-3.9,2.77h-.06c-2.99,0-3.57-2.54-3.66-3.04-.16-1.09-1.18-1.85-2.27-1.68-1.09.16-1.85,1.18-1.68,2.27.33,2.24,2.36,6.45,7.61,6.45h.11c2.78-.03,4.69-1.14,5.93-2.49,1.17,1.23,2.92,2.35,5.47,2.46,2.94.15,4.93-1.3,6.17-2.78,1.89,1.98,4.84,3.6,8.61,2.36,5.94-1.96,7.28-8.61,6.62-13.71-1.06-8.2-8.06-15.43-14.22-17.67Z"/>
      <path class="cls-6" d="M81.19,71.78c2.14,1.75,4.91,2.62,8.83,2.62,3.35,0,7.55-.63,12.93-1.88,1.61-.38,2.62-1.99,2.24-3.6-.38-1.61-1.99-2.62-3.6-2.24-9.12,2.12-14.4,2.27-16.61.46-2.01-1.64-2.53-5.91-2.57-11.99.04,0,.07.01.11.01.07,0,.14,0,.22,0l16.02-1.15c.74-.05,1.39-.38,1.88-.86l-.07.4c-.01.08-.02.17-.02.26,0,1,.62,1.89,1.55,2.26.29.11.59.17.88.17.67,0,1.33-.28,1.84-.82l2.8-3.28,4.06,1.38s.09.03.13.04c1.01.24,2.03-.16,2.61-1.02s.56-1.96-.06-2.8c-.03-.04-.06-.07-.09-.11l-2.48-2.82,2.46-2.58c.63-.74.75-1.77.31-2.63-.44-.86-1.35-1.36-2.32-1.27-.08,0-.15.02-.23.04l-3.93.98-2.12-2.96s-.06-.08-.1-.12c-.61-.69-1.55-.98-2.44-.76-.89.22-1.59.91-1.81,1.8-.03.11-.04.22-.05.33l-.09,3.49-3.8,1.45c-.05.02-.1.04-.15.07-.84.43-1.35,1.33-1.28,2.27.03.46.2.89.46,1.24l-14.23,1.02c.03-1.09.06-2.22.09-3.38l.05-1.62c.05-1.66-1.26-3.04-2.92-3.08-1.69-.05-3.04,1.26-3.08,2.92l-.05,1.62c-.39,13.67-.62,21.92,4.59,26.18ZM103.51,45.53c.57-.22.95-.76.96-1.36l.07-2.68,1.72,2.4c.36.5.99.73,1.58.58l2.65-.66-1.8,1.89c-.54.56-.55,1.44-.04,2.02l1.96,2.23-2.98-1.02c-.58-.2-1.23-.02-1.63.45l-2.1,2.47.52-3.1c.13-.79-.38-1.55-1.17-1.71l-2.38-.5,2.64-1.01Z"/>
      <path class="cls-6" d="M80.44,105.72c-1.09-.17-2.11.59-2.27,1.68-.05.31-.54,3.04-3.65,3.04h-.06c-3.13-.04-3.81-2.33-3.9-2.77-.17-.89-.93-1.54-1.84-1.6-.92-.06-1.74.51-2.03,1.37-.1.29-1.04,2.85-3.85,2.98-2.78.08-3.92-2.96-3.96-3.08-.26-.77-.96-1.3-1.77-1.35-.81-.06-1.57.4-1.92,1.13-.21.44-2.16,4.24-5.69,3.07-4.77-1.58-4.01-8.61-3.91-9.4.85-6.6,6.7-12.63,11.62-14.43,11.59-4.22,20.82,6.31,21.23,6.78.72.84,1.98.94,2.82.22.84-.72.94-1.98.23-2.82-.46-.54-11.41-13.13-25.65-7.95-6.16,2.24-13.16,9.47-14.22,17.67-.66,5.1.68,11.75,6.62,13.71,3.77,1.24,6.72-.38,8.61-2.36,1.24,1.47,3.22,2.92,6.17,2.78,2.55-.11,4.31-1.24,5.47-2.46,1.24,1.34,3.15,2.46,5.93,2.49.04,0,.07,0,.11,0,5.25,0,7.27-4.21,7.6-6.45.16-1.09-.59-2.11-1.68-2.27Z"/>
      <path class="cls-6" d="M128.49,104.7c.01-1.19-1.07-1.83-2.45-1.83h-15.15v-1.04h13.78c1.09,0,2.04-.74,2.26-1.75h0c.27-1.19-.69-2.31-1.97-2.31h-12.42c-.28,0-.5-.21-.5-.48s.22-.48.5-.48h9.45c1.19,0,2.16-.92,2.17-2.05v-.03c0-.95-.82-1.73-1.82-1.73h-9.8c-.28,0-.5-.21-.5-.48s.22-.48.5-.48h9.47c1.18,0,2.15-.91,2.15-2.04,0-.83-.81-1.49-1.67-1.49h-9.94c-.28,0-.5-.21-.5-.48s.22-.48.5-.48h10.38c1.47,0,2.53-1.34,2.14-2.68-.32-1.07-1.35-1.82-2.52-1.82h-9.46c-.06,0-.06,0-.06,0,1.03-1.26.5-3.16-1.2-3.72-1.07-.35-2.25.11-2.89,1-.67.92-1.19,1.85-1.6,2.73h-5.78l.26-.3c.75-.85.9-2.11.2-3.01-1-1.3-2.93-1.3-3.95-.15l-9.99,11.29c-.69.78-.84,2.15-.23,2.97.52.69,1.29,1.02,2.06,1.02.71,0,1.42-.29,1.91-.85l2.1-2.38v7.07c0,.12.02.23.04.35-.02.12-.04.23-.04.35,0,1.31,1.12,2.38,2.5,2.38h9.48s0,1.03,0,1.03h-13.75c-1.38,0-2.46.71-2.45,1.86.01,1.09,1.07,1.9,2.45,1.9h12c-2.99,1.61-6.42,2.83-8.96,2.83-1.45,0-3.72.35-4.28,2.3-.41,1.42.8,2.77,2.34,2.76,3.88-.02,9.26-2.68,12.65-4.6v2.23c0,1.31,1.12,2.38,2.5,2.38s2.5-1.06,2.5-2.38v-2.89c3.32,2.32,9.85,6.18,15.15,5.08,1.23-.26,2.05-1.43,1.76-2.6-.44-1.7-2.23-1.96-3.72-1.96-3.09,0-7.54-1.65-10.39-3.14h12.36c1.38,0,2.44-.71,2.45-1.93ZM106.77,97.77h-8.52c-.28,0-.5-.21-.5-.48s.22-.48.5-.48h8.52c.28,0,.5.21.5.48s-.22.48-.5.48ZM106.77,93.01h-8.52c-.28,0-.5-.21-.5-.48s.22-.48.5-.48h8.52c.28,0,.5.21.5.48s-.22.48-.5.48ZM106.83,88.53h-8.52c-.28,0-.5-.21-.5-.48s.22-.48.5-.48h8.52c.28,0,.5.21.5.48s-.22.48-.5.48Z"/>
    </g>
    <g>
      <g>
        <g>
          <path class="cls-5" d="M38.85,47.64l8.93,1.15c.13.02.26.02.39.02,1.49,0,2.78-1.1,2.97-2.62.21-1.64-.95-3.15-2.59-3.36l-8.93-1.15c-1.64-.21-3.15.95-3.36,2.59-.21,1.64.95,3.15,2.59,3.36Z"/>
          <path class="cls-5" d="M47.39,58.68c.14.02.27.03.4.03,1.48,0,2.77-1.09,2.97-2.6.22-1.64-.93-3.15-2.57-3.37l-8.67-1.16c-1.65-.23-3.15.93-3.37,2.57-.22,1.64.93,3.15,2.57,3.37l8.67,1.16Z"/>
          <path class="cls-5" d="M69.32,48.7c-1.59-.48-3.26.42-3.74,2.01-1.83,6.08-3.03,10.1-9.33,14.42-6.59,4.52-15.59,4.43-15.7,4.43-1.65-.07-3.02,1.29-3.05,2.94-.03,1.66,1.28,3.03,2.94,3.06.03,0,.1,0,.22,0,1.61,0,11.32-.23,18.99-5.48,8.04-5.51,9.73-11.13,11.68-17.64.48-1.59-.42-3.26-2.01-3.74Z"/>
        </g>
        <g>
          <path class="cls-5" d="M38.85,47.64l8.93,1.15c.13.02.26.02.39.02,1.49,0,2.78-1.1,2.97-2.62.21-1.64-.95-3.15-2.59-3.36l-8.93-1.15c-1.64-.21-3.15.95-3.36,2.59-.21,1.64.95,3.15,2.59,3.36Z"/>
          <path class="cls-5" d="M47.39,58.68c.14.02.27.03.4.03,1.48,0,2.77-1.09,2.97-2.6.22-1.64-.93-3.15-2.57-3.37l-8.67-1.16c-1.65-.23-3.15.93-3.37,2.57-.22,1.64.93,3.15,2.57,3.37l8.67,1.16Z"/>
          <path class="cls-5" d="M69.32,48.7c-1.59-.48-3.26.42-3.74,2.01-1.83,6.08-3.03,10.1-9.33,14.42-6.59,4.52-15.59,4.43-15.7,4.43-1.65-.07-3.02,1.29-3.05,2.94-.03,1.66,1.28,3.03,2.94,3.06.03,0,.1,0,.22,0,1.61,0,11.32-.23,18.99-5.48,8.04-5.51,9.73-11.13,11.68-17.64.48-1.59-.42-3.26-2.01-3.74Z"/>
        </g>
        <g>
          <path class="cls-5" d="M38.85,47.64l8.93,1.15c.13.02.26.02.39.02,1.49,0,2.78-1.1,2.97-2.62.21-1.64-.95-3.15-2.59-3.36l-8.93-1.15c-1.64-.21-3.15.95-3.36,2.59-.21,1.64.95,3.15,2.59,3.36Z"/>
          <path class="cls-5" d="M47.39,58.68c.14.02.27.03.4.03,1.48,0,2.77-1.09,2.97-2.6.22-1.64-.93-3.15-2.57-3.37l-8.67-1.16c-1.65-.23-3.15.93-3.37,2.57-.22,1.64.93,3.15,2.57,3.37l8.67,1.16Z"/>
          <path class="cls-5" d="M69.32,48.7c-1.59-.48-3.26.42-3.74,2.01-1.83,6.08-3.03,10.1-9.33,14.42-6.59,4.52-15.59,4.43-15.7,4.43-1.65-.07-3.02,1.29-3.05,2.94-.03,1.66,1.28,3.03,2.94,3.06.03,0,.1,0,.22,0,1.61,0,11.32-.23,18.99-5.48,8.04-5.51,9.73-11.13,11.68-17.64.48-1.59-.42-3.26-2.01-3.74Z"/>
        </g>
      </g>
      <path class="cls-5" d="M114.82,70.23c.58.85,1.52,1.3,2.48,1.3.59,0,1.18-.17,1.7-.53,10.09-6.93,9-26.48,8.95-27.31-.1-1.65-1.51-2.91-3.18-2.81-1.65.1-2.91,1.52-2.81,3.18.28,4.71-.31,17.84-6.36,21.99-1.37.94-1.71,2.81-.77,4.17Z"/>
      <path class="cls-5" d="M135.39,72.25c.18,0,.36-.02.54-.05.49-.09,12.03-2.29,16.95-11.89.76-1.47.17-3.28-1.3-4.04-1.47-.76-3.28-.17-4.04,1.3-2.12,4.13-6.19,6.43-9.15,7.62v-24.05c0-1.66-1.34-3-3-3s-3,1.34-3,3v28.11c0,.89.39,1.73,1.08,2.3.54.45,1.22.7,1.92.7Z"/>
      <path class="cls-5" d="M175.26,65.82c-1.36-.95-3.23-.61-4.18.75-.95,1.36-.61,3.23.75,4.18,3.98,2.77,6.44,3.43,7.94,3.43.97,0,1.53-.27,1.85-.42,5.88-2.84,5.32-20.11,5.31-20.29-.29-4.39-2.62-7.26-6.36-7.89-1.94-.32-5.25-.22-8.78.05.48-2.25.75-3.73.79-3.95.29-1.63-.79-3.19-2.42-3.48-1.62-.29-3.19.79-3.48,2.42-.01.07-.42,2.33-1.17,5.63-4.1.48-7.55,1-8.34,1.12-1.64.25-2.76,1.78-2.51,3.42.25,1.64,1.79,2.76,3.42,2.51,1.7-.26,3.75-.55,5.91-.82-1.49,5.63-3.54,12.01-5.97,16.15-.84,1.43-.36,3.27,1.07,4.11.48.28,1,.41,1.51.41,1.03,0,2.03-.53,2.59-1.48,3.1-5.28,5.56-13.42,7.18-19.89,3.99-.38,7.58-.56,9.21-.29.46.08,1.22.21,1.37,2.38.27,4.05-.65,11.7-1.84,14.11-.97-.38-2.55-1.25-3.84-2.15Z"/>
      <path class="cls-5" d="M198.86,57.82c.3.12.61.17.91.17,1,0,1.94-.6,2.33-1.59.5-1.28-.13-2.74-1.41-3.24-1.88-.74-3.91-1.8-4.86-2.51.87-1.2,3.15-3.37,5.47-5.17,1.09-.84,1.29-2.41.45-3.51-.84-1.09-2.41-1.29-3.51-.45-5.26,4.07-7.86,7.31-7.71,9.63.06.86.22,3.48,8.32,6.65Z"/>
      <path class="cls-5" d="M218.87,63.7c-.15-1.1-1.17-1.86-2.25-1.71-1.09.15-1.86,1.16-1.71,2.25.1.76.04,2.74-.51,3.37-.07.08-.18.21-.61.21-1.11,0-1.77-3.03-2.07-4.65-.15-.79-1.01-1.7-1.9-1.71-.94-.01-2.79,1.12-4.17,4.67.66-2.85,2.54-6.83,3.33-7.56.81-.76.85-2.02.09-2.83-.75-.81-2.02-.85-2.83-.09-2.5,2.34-4.46,9.94-4.18,13.02.11,1.23.57,2.11,1.35,2.62.33.21.71.32,1.08.32.57,0,1.59-.21,2.35-.91.67-.61,1.92-3.07,1.92-3.07.92,2.13,2.51,3.98,5.05,3.98,1.46,0,2.72-.55,3.62-1.58,1.93-2.21,1.49-5.9,1.44-6.31ZM206.07,68.49h0,0Z"/>
      <g>
        <g>
          <path class="cls-5" d="M166.09,89.92c-.37-.52-.93-.91-1.61-1.03-2.34-.41-3.9-1.17-6.91-2.7-1.74-.88-4.2-3.23-5.58-4.14-2.51-1.66-3.52-4.03-6.75-.87-4.39,3.55-6.5,5.07-8.2,6.04-1.69.98-2.97,1.41-5.66,2.77l-.06.03-.06.03c-.62.31-1.05.84-1.25,1.45s-.17,1.29.15,1.91c.22.43.55.78.94,1.01s.84.36,1.29.36c.19,0,.38-.02.57-.07s.38-.11.56-.2l.06-.03.06-.03c2.87-1.45,4.38-2.24,6.23-3.51,1.85-1.27,4.04-3.03,8.25-6.44,1.57,1.39,4.05,3.47,6.84,5.32,2.79,1.86,5.88,3.49,8.65,3.97.07.01.15.02.22.03s.14,0,.22,0c.6,0,1.16-.21,1.6-.58s.76-.88.86-1.49c.12-.68-.05-1.34-.41-1.87Z"/>
          <path class="cls-5" d="M155.25,96.35c1.38,0,2.5-1.12,2.5-2.5s-1.12-2.5-2.5-2.5h-14.06c-1.38,0-2.5,1.12-2.5,2.5s1.12,2.5,2.5,2.5h14.06Z"/>
          <path class="cls-5" d="M157.52,104.31c-1.14-1.01-2.69-1.21-3.4-.79-1.19.7-.79,2.27.07,3.34.07.09.14.18.21.27-4.64,1.29-9.48,2.8-12.34,3.31,1.17-2.1,3.62-4.39,6.16-7.13.08-.08.14-.17.2-.26h12.6c1.38,0,2.5-1.12,2.5-2.5s-1.12-2.5-2.5-2.5h-25.6c-1.38,0-2.5,1.12-2.5,2.5s1.12,2.5,2.5,2.5h7.79c-3.92,3.88-7.71,7.2-6.27,10.38.48,1.06,1.1,1.6,2.8,1.6s4.65-.56,9.72-1.69c3.16-.7,6.31-1.47,8.05-1.89,1.2,1.83,1.84,3.05,1.85,3.07.45.86,1.32,1.35,2.22,1.35.39,0,.78-.09,1.15-.28,1.22-.64,1.7-2.15,1.06-3.37-.08-.16-1.93-4.04-6.29-7.9Z"/>
        </g>
        <g>
          <path class="cls-5" d="M166.09,89.92c-.37-.52-.93-.91-1.61-1.03-2.34-.41-3.9-1.17-6.91-2.7-1.74-.88-4.2-3.23-5.58-4.14-2.51-1.66-3.52-4.03-6.75-.87-4.39,3.55-6.5,5.07-8.2,6.04-1.69.98-2.97,1.41-5.66,2.77l-.06.03-.06.03c-.62.31-1.05.84-1.25,1.45s-.17,1.29.15,1.91c.22.43.55.78.94,1.01s.84.36,1.29.36c.19,0,.38-.02.57-.07s.38-.11.56-.2l.06-.03.06-.03c2.87-1.45,4.38-2.24,6.23-3.51,1.85-1.27,4.04-3.03,8.25-6.44,1.57,1.39,4.05,3.47,6.84,5.32,2.79,1.86,5.88,3.49,8.65,3.97.07.01.15.02.22.03s.14,0,.22,0c.6,0,1.16-.21,1.6-.58s.76-.88.86-1.49c.12-.68-.05-1.34-.41-1.87Z"/>
          <path class="cls-5" d="M155.25,96.35c1.38,0,2.5-1.12,2.5-2.5s-1.12-2.5-2.5-2.5h-14.06c-1.38,0-2.5,1.12-2.5,2.5s1.12,2.5,2.5,2.5h14.06Z"/>
          <path class="cls-5" d="M157.52,104.31c-1.14-1.01-2.69-1.21-3.4-.79-1.19.7-.79,2.27.07,3.34.07.09.14.18.21.27-4.64,1.29-9.48,2.8-12.34,3.31,1.17-2.1,3.62-4.39,6.16-7.13.08-.08.14-.17.2-.26h12.6c1.38,0,2.5-1.12,2.5-2.5s-1.12-2.5-2.5-2.5h-25.6c-1.38,0-2.5,1.12-2.5,2.5s1.12,2.5,2.5,2.5h7.79c-3.92,3.88-7.71,7.2-6.27,10.38.48,1.06,1.1,1.6,2.8,1.6s4.65-.56,9.72-1.69c3.16-.7,6.31-1.47,8.05-1.89,1.2,1.83,1.84,3.05,1.85,3.07.45.86,1.32,1.35,2.22,1.35.39,0,.78-.09,1.15-.28,1.22-.64,1.7-2.15,1.06-3.37-.08-.16-1.93-4.04-6.29-7.9Z"/>
        </g>
        <g>
          <path class="cls-5" d="M166.09,89.92c-.37-.52-.93-.91-1.61-1.03-2.34-.41-3.9-1.17-6.91-2.7-1.74-.88-4.2-3.23-5.58-4.14-2.51-1.66-3.52-4.03-6.75-.87-4.39,3.55-6.5,5.07-8.2,6.04-1.69.98-2.97,1.41-5.66,2.77l-.06.03-.06.03c-.62.31-1.05.84-1.25,1.45s-.17,1.29.15,1.91c.22.43.55.78.94,1.01s.84.36,1.29.36c.19,0,.38-.02.57-.07s.38-.11.56-.2l.06-.03.06-.03c2.87-1.45,4.38-2.24,6.23-3.51,1.85-1.27,4.04-3.03,8.25-6.44,1.57,1.39,4.05,3.47,6.84,5.32,2.79,1.86,5.88,3.49,8.65,3.97.07.01.15.02.22.03s.14,0,.22,0c.6,0,1.16-.21,1.6-.58s.76-.88.86-1.49c.12-.68-.05-1.34-.41-1.87Z"/>
          <path class="cls-5" d="M155.25,96.35c1.38,0,2.5-1.12,2.5-2.5s-1.12-2.5-2.5-2.5h-14.06c-1.38,0-2.5,1.12-2.5,2.5s1.12,2.5,2.5,2.5h14.06Z"/>
          <path class="cls-5" d="M157.52,104.31c-1.14-1.01-2.69-1.21-3.4-.79-1.19.7-.79,2.27.07,3.34.07.09.14.18.21.27-4.64,1.29-9.48,2.8-12.34,3.31,1.17-2.1,3.62-4.39,6.16-7.13.08-.08.14-.17.2-.26h12.6c1.38,0,2.5-1.12,2.5-2.5s-1.12-2.5-2.5-2.5h-25.6c-1.38,0-2.5,1.12-2.5,2.5s1.12,2.5,2.5,2.5h7.79c-3.92,3.88-7.71,7.2-6.27,10.38.48,1.06,1.1,1.6,2.8,1.6s4.65-.56,9.72-1.69c3.16-.7,6.31-1.47,8.05-1.89,1.2,1.83,1.84,3.05,1.85,3.07.45.86,1.32,1.35,2.22,1.35.39,0,.78-.09,1.15-.28,1.22-.64,1.7-2.15,1.06-3.37-.08-.16-1.93-4.04-6.29-7.9Z"/>
        </g>
      </g>
      <path class="cls-5" d="M197.23,81.46c-14.24-5.19-25.19,7.41-25.65,7.95-.72.84-.61,2.1.22,2.82.84.72,2.1.62,2.82-.22.39-.45,9.63-11.02,21.23-6.79,4.93,1.79,10.77,7.82,11.62,14.43.1.8.87,7.83-3.91,9.4-3.52,1.16-5.48-2.63-5.68-3.06-.34-.73-1.09-1.17-1.91-1.14-.81.04-1.52.57-1.79,1.33-.05.13-1.16,3.2-3.96,3.09-2.82-.12-3.76-2.69-3.85-2.96-.27-.87-1.09-1.45-2.02-1.4-.91.05-1.68.71-1.85,1.61-.02.11-.57,2.73-3.9,2.77h-.06c-2.99,0-3.57-2.54-3.66-3.04-.16-1.09-1.18-1.85-2.27-1.68-1.09.16-1.85,1.18-1.68,2.27.33,2.24,2.36,6.45,7.61,6.45h.11c2.78-.03,4.69-1.14,5.93-2.49,1.17,1.23,2.92,2.35,5.47,2.46,2.94.15,4.93-1.3,6.17-2.78,1.89,1.98,4.84,3.6,8.61,2.36,5.94-1.96,7.28-8.61,6.62-13.71-1.06-8.2-8.06-15.43-14.22-17.67Z"/>
      <path class="cls-5" d="M81.19,71.78c2.14,1.75,4.91,2.62,8.83,2.62,3.35,0,7.55-.63,12.93-1.88,1.61-.38,2.62-1.99,2.24-3.6-.38-1.61-1.99-2.62-3.6-2.24-9.12,2.12-14.4,2.27-16.61.46-2.01-1.64-2.53-5.91-2.57-11.99.04,0,.07.01.11.01.07,0,.14,0,.22,0l16.02-1.15c.74-.05,1.39-.38,1.88-.86l-.07.4c-.01.08-.02.17-.02.26,0,1,.62,1.89,1.55,2.26.29.11.59.17.88.17.67,0,1.33-.28,1.84-.82l2.8-3.28,4.06,1.38s.09.03.13.04c1.01.24,2.03-.16,2.61-1.02s.56-1.96-.06-2.8c-.03-.04-.06-.07-.09-.11l-2.48-2.82,2.46-2.58c.63-.74.75-1.77.31-2.63-.44-.86-1.35-1.36-2.32-1.27-.08,0-.15.02-.23.04l-3.93.98-2.12-2.96s-.06-.08-.1-.12c-.61-.69-1.55-.98-2.44-.76-.89.22-1.59.91-1.81,1.8-.03.11-.04.22-.05.33l-.09,3.49-3.8,1.45c-.05.02-.1.04-.15.07-.84.43-1.35,1.33-1.28,2.27.03.46.2.89.46,1.24l-14.23,1.02c.03-1.09.06-2.22.09-3.38l.05-1.62c.05-1.66-1.26-3.04-2.92-3.08-1.69-.05-3.04,1.26-3.08,2.92l-.05,1.62c-.39,13.67-.62,21.92,4.59,26.18ZM103.51,45.53c.57-.22.95-.76.96-1.36l.07-2.68,1.72,2.4c.36.5.99.73,1.58.58l2.65-.66-1.8,1.89c-.54.56-.55,1.44-.04,2.02l1.96,2.23-2.98-1.02c-.58-.2-1.23-.02-1.63.45l-2.1,2.47.52-3.1c.13-.79-.38-1.55-1.17-1.71l-2.38-.5,2.64-1.01Z"/>
      <path class="cls-5" d="M80.44,105.72c-1.09-.17-2.11.59-2.27,1.68-.05.31-.54,3.04-3.65,3.04h-.06c-3.13-.04-3.81-2.33-3.9-2.77-.17-.89-.93-1.54-1.84-1.6-.92-.06-1.74.51-2.03,1.37-.1.29-1.04,2.85-3.85,2.98-2.78.08-3.92-2.96-3.96-3.08-.26-.77-.96-1.3-1.77-1.35-.81-.06-1.57.4-1.92,1.13-.21.44-2.16,4.24-5.69,3.07-4.77-1.58-4.01-8.61-3.91-9.4.85-6.6,6.7-12.63,11.62-14.43,11.59-4.22,20.82,6.31,21.23,6.78.72.84,1.98.94,2.82.22.84-.72.94-1.98.23-2.82-.46-.54-11.41-13.13-25.65-7.95-6.16,2.24-13.16,9.47-14.22,17.67-.66,5.1.68,11.75,6.62,13.71,3.77,1.24,6.72-.38,8.61-2.36,1.24,1.47,3.22,2.92,6.17,2.78,2.55-.11,4.31-1.24,5.47-2.46,1.24,1.34,3.15,2.46,5.93,2.49.04,0,.07,0,.11,0,5.25,0,7.27-4.21,7.6-6.45.16-1.09-.59-2.11-1.68-2.27Z"/>
      <path class="cls-5" d="M128.49,104.7c.01-1.19-1.07-1.83-2.45-1.83h-15.15v-1.04h13.78c1.09,0,2.04-.74,2.26-1.75h0c.27-1.19-.69-2.31-1.97-2.31h-12.42c-.28,0-.5-.21-.5-.48s.22-.48.5-.48h9.45c1.19,0,2.16-.92,2.17-2.05v-.03c0-.95-.82-1.73-1.82-1.73h-9.8c-.28,0-.5-.21-.5-.48s.22-.48.5-.48h9.47c1.18,0,2.15-.91,2.15-2.04,0-.83-.81-1.49-1.67-1.49h-9.94c-.28,0-.5-.21-.5-.48s.22-.48.5-.48h10.38c1.47,0,2.53-1.34,2.14-2.68-.32-1.07-1.35-1.82-2.52-1.82h-9.46c-.06,0-.06,0-.06,0,1.03-1.26.5-3.16-1.2-3.72-1.07-.35-2.25.11-2.89,1-.67.92-1.19,1.85-1.6,2.73h-5.78l.26-.3c.75-.85.9-2.11.2-3.01-1-1.3-2.93-1.3-3.95-.15l-9.99,11.29c-.69.78-.84,2.15-.23,2.97.52.69,1.29,1.02,2.06,1.02.71,0,1.42-.29,1.91-.85l2.1-2.38v7.07c0,.12.02.23.04.35-.02.12-.04.23-.04.35,0,1.31,1.12,2.38,2.5,2.38h9.48s0,1.03,0,1.03h-13.75c-1.38,0-2.46.71-2.45,1.86.01,1.09,1.07,1.9,2.45,1.9h12c-2.99,1.61-6.42,2.83-8.96,2.83-1.45,0-3.72.35-4.28,2.3-.41,1.42.8,2.77,2.34,2.76,3.88-.02,9.26-2.68,12.65-4.6v2.23c0,1.31,1.12,2.38,2.5,2.38s2.5-1.06,2.5-2.38v-2.89c3.32,2.32,9.85,6.18,15.15,5.08,1.23-.26,2.05-1.43,1.76-2.6-.44-1.7-2.23-1.96-3.72-1.96-3.09,0-7.54-1.65-10.39-3.14h12.36c1.38,0,2.44-.71,2.45-1.93ZM106.77,97.77h-8.52c-.28,0-.5-.21-.5-.48s.22-.48.5-.48h8.52c.28,0,.5.21.5.48s-.22.48-.5.48ZM106.77,93.01h-8.52c-.28,0-.5-.21-.5-.48s.22-.48.5-.48h8.52c.28,0,.5.21.5.48s-.22.48-.5.48ZM106.83,88.53h-8.52c-.28,0-.5-.21-.5-.48s.22-.48.5-.48h8.52c.28,0,.5.21.5.48s-.22.48-.5.48Z"/>
    </g>
    <g>
      <g>
        <g>
          <path class="cls-8" d="M38.85,47.64l8.93,1.15c.13.02.26.02.39.02,1.49,0,2.78-1.1,2.97-2.62.21-1.64-.95-3.15-2.59-3.36l-8.93-1.15c-1.64-.21-3.15.95-3.36,2.59-.21,1.64.95,3.15,2.59,3.36Z"/>
          <path class="cls-8" d="M47.39,58.68c.14.02.27.03.4.03,1.48,0,2.77-1.09,2.97-2.6.22-1.64-.93-3.15-2.57-3.37l-8.67-1.16c-1.65-.23-3.15.93-3.37,2.57-.22,1.64.93,3.15,2.57,3.37l8.67,1.16Z"/>
          <path class="cls-8" d="M69.32,48.7c-1.59-.48-3.26.42-3.74,2.01-1.83,6.08-3.03,10.1-9.33,14.42-6.59,4.52-15.59,4.43-15.7,4.43-1.65-.07-3.02,1.29-3.05,2.94-.03,1.66,1.28,3.03,2.94,3.06.03,0,.1,0,.22,0,1.61,0,11.32-.23,18.99-5.48,8.04-5.51,9.73-11.13,11.68-17.64.48-1.59-.42-3.26-2.01-3.74Z"/>
        </g>
        <g>
          <path class="cls-8" d="M38.85,47.64l8.93,1.15c.13.02.26.02.39.02,1.49,0,2.78-1.1,2.97-2.62.21-1.64-.95-3.15-2.59-3.36l-8.93-1.15c-1.64-.21-3.15.95-3.36,2.59-.21,1.64.95,3.15,2.59,3.36Z"/>
          <path class="cls-8" d="M47.39,58.68c.14.02.27.03.4.03,1.48,0,2.77-1.09,2.97-2.6.22-1.64-.93-3.15-2.57-3.37l-8.67-1.16c-1.65-.23-3.15.93-3.37,2.57-.22,1.64.93,3.15,2.57,3.37l8.67,1.16Z"/>
          <path class="cls-8" d="M69.32,48.7c-1.59-.48-3.26.42-3.74,2.01-1.83,6.08-3.03,10.1-9.33,14.42-6.59,4.52-15.59,4.43-15.7,4.43-1.65-.07-3.02,1.29-3.05,2.94-.03,1.66,1.28,3.03,2.94,3.06.03,0,.1,0,.22,0,1.61,0,11.32-.23,18.99-5.48,8.04-5.51,9.73-11.13,11.68-17.64.48-1.59-.42-3.26-2.01-3.74Z"/>
        </g>
        <g>
          <path class="cls-8" d="M38.85,47.64l8.93,1.15c.13.02.26.02.39.02,1.49,0,2.78-1.1,2.97-2.62.21-1.64-.95-3.15-2.59-3.36l-8.93-1.15c-1.64-.21-3.15.95-3.36,2.59-.21,1.64.95,3.15,2.59,3.36Z"/>
          <path class="cls-8" d="M47.39,58.68c.14.02.27.03.4.03,1.48,0,2.77-1.09,2.97-2.6.22-1.64-.93-3.15-2.57-3.37l-8.67-1.16c-1.65-.23-3.15.93-3.37,2.57-.22,1.64.93,3.15,2.57,3.37l8.67,1.16Z"/>
          <path class="cls-8" d="M69.32,48.7c-1.59-.48-3.26.42-3.74,2.01-1.83,6.08-3.03,10.1-9.33,14.42-6.59,4.52-15.59,4.43-15.7,4.43-1.65-.07-3.02,1.29-3.05,2.94-.03,1.66,1.28,3.03,2.94,3.06.03,0,.1,0,.22,0,1.61,0,11.32-.23,18.99-5.48,8.04-5.51,9.73-11.13,11.68-17.64.48-1.59-.42-3.26-2.01-3.74Z"/>
        </g>
      </g>
      <path class="cls-8" d="M114.82,70.23c.58.85,1.52,1.3,2.48,1.3.59,0,1.18-.17,1.7-.53,10.09-6.93,9-26.48,8.95-27.31-.1-1.65-1.51-2.91-3.18-2.81-1.65.1-2.91,1.52-2.81,3.18.28,4.71-.31,17.84-6.36,21.99-1.37.94-1.71,2.81-.77,4.17Z"/>
      <path class="cls-8" d="M135.39,72.25c.18,0,.36-.02.54-.05.49-.09,12.03-2.29,16.95-11.89.76-1.47.17-3.28-1.3-4.04-1.47-.76-3.28-.17-4.04,1.3-2.12,4.13-6.19,6.43-9.15,7.62v-24.05c0-1.66-1.34-3-3-3s-3,1.34-3,3v28.11c0,.89.39,1.73,1.08,2.3.54.45,1.22.7,1.92.7Z"/>
      <path class="cls-8" d="M175.26,65.82c-1.36-.95-3.23-.61-4.18.75-.95,1.36-.61,3.23.75,4.18,3.98,2.77,6.44,3.43,7.94,3.43.97,0,1.53-.27,1.85-.42,5.88-2.84,5.32-20.11,5.31-20.29-.29-4.39-2.62-7.26-6.36-7.89-1.94-.32-5.25-.22-8.78.05.48-2.25.75-3.73.79-3.95.29-1.63-.79-3.19-2.42-3.48-1.62-.29-3.19.79-3.48,2.42-.01.07-.42,2.33-1.17,5.63-4.1.48-7.55,1-8.34,1.12-1.64.25-2.76,1.78-2.51,3.42.25,1.64,1.79,2.76,3.42,2.51,1.7-.26,3.75-.55,5.91-.82-1.49,5.63-3.54,12.01-5.97,16.15-.84,1.43-.36,3.27,1.07,4.11.48.28,1,.41,1.51.41,1.03,0,2.03-.53,2.59-1.48,3.1-5.28,5.56-13.42,7.18-19.89,3.99-.38,7.58-.56,9.21-.29.46.08,1.22.21,1.37,2.38.27,4.05-.65,11.7-1.84,14.11-.97-.38-2.55-1.25-3.84-2.15Z"/>
      <path class="cls-8" d="M198.86,57.82c.3.12.61.17.91.17,1,0,1.94-.6,2.33-1.59.5-1.28-.13-2.74-1.41-3.24-1.88-.74-3.91-1.8-4.86-2.51.87-1.2,3.15-3.37,5.47-5.17,1.09-.84,1.29-2.41.45-3.51-.84-1.09-2.41-1.29-3.51-.45-5.26,4.07-7.86,7.31-7.71,9.63.06.86.22,3.48,8.32,6.65Z"/>
      <path class="cls-8" d="M218.87,63.7c-.15-1.1-1.17-1.86-2.25-1.71-1.09.15-1.86,1.16-1.71,2.25.1.76.04,2.74-.51,3.37-.07.08-.18.21-.61.21-1.11,0-1.77-3.03-2.07-4.65-.15-.79-1.01-1.7-1.9-1.71-.94-.01-2.79,1.12-4.17,4.67.66-2.85,2.54-6.83,3.33-7.56.81-.76.85-2.02.09-2.83-.75-.81-2.02-.85-2.83-.09-2.5,2.34-4.46,9.94-4.18,13.02.11,1.23.57,2.11,1.35,2.62.33.21.71.32,1.08.32.57,0,1.59-.21,2.35-.91.67-.61,1.92-3.07,1.92-3.07.92,2.13,2.51,3.98,5.05,3.98,1.46,0,2.72-.55,3.62-1.58,1.93-2.21,1.49-5.9,1.44-6.31ZM206.07,68.49h0,0Z"/>
      <g>
        <g>
          <path class="cls-8" d="M166.09,89.92c-.37-.52-.93-.91-1.61-1.03-2.34-.41-3.9-1.17-6.91-2.7-1.74-.88-4.2-3.23-5.58-4.14-2.51-1.66-3.52-4.03-6.75-.87-4.39,3.55-6.5,5.07-8.2,6.04-1.69.98-2.97,1.41-5.66,2.77l-.06.03-.06.03c-.62.31-1.05.84-1.25,1.45s-.17,1.29.15,1.91c.22.43.55.78.94,1.01s.84.36,1.29.36c.19,0,.38-.02.57-.07s.38-.11.56-.2l.06-.03.06-.03c2.87-1.45,4.38-2.24,6.23-3.51,1.85-1.27,4.04-3.03,8.25-6.44,1.57,1.39,4.05,3.47,6.84,5.32,2.79,1.86,5.88,3.49,8.65,3.97.07.01.15.02.22.03s.14,0,.22,0c.6,0,1.16-.21,1.6-.58s.76-.88.86-1.49c.12-.68-.05-1.34-.41-1.87Z"/>
          <path class="cls-8" d="M155.25,96.35c1.38,0,2.5-1.12,2.5-2.5s-1.12-2.5-2.5-2.5h-14.06c-1.38,0-2.5,1.12-2.5,2.5s1.12,2.5,2.5,2.5h14.06Z"/>
          <path class="cls-8" d="M157.52,104.31c-1.14-1.01-2.69-1.21-3.4-.79-1.19.7-.79,2.27.07,3.34.07.09.14.18.21.27-4.64,1.29-9.48,2.8-12.34,3.31,1.17-2.1,3.62-4.39,6.16-7.13.08-.08.14-.17.2-.26h12.6c1.38,0,2.5-1.12,2.5-2.5s-1.12-2.5-2.5-2.5h-25.6c-1.38,0-2.5,1.12-2.5,2.5s1.12,2.5,2.5,2.5h7.79c-3.92,3.88-7.71,7.2-6.27,10.38.48,1.06,1.1,1.6,2.8,1.6s4.65-.56,9.72-1.69c3.16-.7,6.31-1.47,8.05-1.89,1.2,1.83,1.84,3.05,1.85,3.07.45.86,1.32,1.35,2.22,1.35.39,0,.78-.09,1.15-.28,1.22-.64,1.7-2.15,1.06-3.37-.08-.16-1.93-4.04-6.29-7.9Z"/>
        </g>
        <g>
          <path class="cls-8" d="M166.09,89.92c-.37-.52-.93-.91-1.61-1.03-2.34-.41-3.9-1.17-6.91-2.7-1.74-.88-4.2-3.23-5.58-4.14-2.51-1.66-3.52-4.03-6.75-.87-4.39,3.55-6.5,5.07-8.2,6.04-1.69.98-2.97,1.41-5.66,2.77l-.06.03-.06.03c-.62.31-1.05.84-1.25,1.45s-.17,1.29.15,1.91c.22.43.55.78.94,1.01s.84.36,1.29.36c.19,0,.38-.02.57-.07s.38-.11.56-.2l.06-.03.06-.03c2.87-1.45,4.38-2.24,6.23-3.51,1.85-1.27,4.04-3.03,8.25-6.44,1.57,1.39,4.05,3.47,6.84,5.32,2.79,1.86,5.88,3.49,8.65,3.97.07.01.15.02.22.03s.14,0,.22,0c.6,0,1.16-.21,1.6-.58s.76-.88.86-1.49c.12-.68-.05-1.34-.41-1.87Z"/>
          <path class="cls-8" d="M155.25,96.35c1.38,0,2.5-1.12,2.5-2.5s-1.12-2.5-2.5-2.5h-14.06c-1.38,0-2.5,1.12-2.5,2.5s1.12,2.5,2.5,2.5h14.06Z"/>
          <path class="cls-8" d="M157.52,104.31c-1.14-1.01-2.69-1.21-3.4-.79-1.19.7-.79,2.27.07,3.34.07.09.14.18.21.27-4.64,1.29-9.48,2.8-12.34,3.31,1.17-2.1,3.62-4.39,6.16-7.13.08-.08.14-.17.2-.26h12.6c1.38,0,2.5-1.12,2.5-2.5s-1.12-2.5-2.5-2.5h-25.6c-1.38,0-2.5,1.12-2.5,2.5s1.12,2.5,2.5,2.5h7.79c-3.92,3.88-7.71,7.2-6.27,10.38.48,1.06,1.1,1.6,2.8,1.6s4.65-.56,9.72-1.69c3.16-.7,6.31-1.47,8.05-1.89,1.2,1.83,1.84,3.05,1.85,3.07.45.86,1.32,1.35,2.22,1.35.39,0,.78-.09,1.15-.28,1.22-.64,1.7-2.15,1.06-3.37-.08-.16-1.93-4.04-6.29-7.9Z"/>
        </g>
        <g>
          <path class="cls-8" d="M166.09,89.92c-.37-.52-.93-.91-1.61-1.03-2.34-.41-3.9-1.17-6.91-2.7-1.74-.88-4.2-3.23-5.58-4.14-2.51-1.66-3.52-4.03-6.75-.87-4.39,3.55-6.5,5.07-8.2,6.04-1.69.98-2.97,1.41-5.66,2.77l-.06.03-.06.03c-.62.31-1.05.84-1.25,1.45s-.17,1.29.15,1.91c.22.43.55.78.94,1.01s.84.36,1.29.36c.19,0,.38-.02.57-.07s.38-.11.56-.2l.06-.03.06-.03c2.87-1.45,4.38-2.24,6.23-3.51,1.85-1.27,4.04-3.03,8.25-6.44,1.57,1.39,4.05,3.47,6.84,5.32,2.79,1.86,5.88,3.49,8.65,3.97.07.01.15.02.22.03s.14,0,.22,0c.6,0,1.16-.21,1.6-.58s.76-.88.86-1.49c.12-.68-.05-1.34-.41-1.87Z"/>
          <path class="cls-8" d="M155.25,96.35c1.38,0,2.5-1.12,2.5-2.5s-1.12-2.5-2.5-2.5h-14.06c-1.38,0-2.5,1.12-2.5,2.5s1.12,2.5,2.5,2.5h14.06Z"/>
          <path class="cls-8" d="M157.52,104.31c-1.14-1.01-2.69-1.21-3.4-.79-1.19.7-.79,2.27.07,3.34.07.09.14.18.21.27-4.64,1.29-9.48,2.8-12.34,3.31,1.17-2.1,3.62-4.39,6.16-7.13.08-.08.14-.17.2-.26h12.6c1.38,0,2.5-1.12,2.5-2.5s-1.12-2.5-2.5-2.5h-25.6c-1.38,0-2.5,1.12-2.5,2.5s1.12,2.5,2.5,2.5h7.79c-3.92,3.88-7.71,7.2-6.27,10.38.48,1.06,1.1,1.6,2.8,1.6s4.65-.56,9.72-1.69c3.16-.7,6.31-1.47,8.05-1.89,1.2,1.83,1.84,3.05,1.85,3.07.45.86,1.32,1.35,2.22,1.35.39,0,.78-.09,1.15-.28,1.22-.64,1.7-2.15,1.06-3.37-.08-.16-1.93-4.04-6.29-7.9Z"/>
        </g>
      </g>
      <path class="cls-8" d="M197.23,81.46c-14.24-5.19-25.19,7.41-25.65,7.95-.72.84-.61,2.1.22,2.82.84.72,2.1.62,2.82-.22.39-.45,9.63-11.02,21.23-6.79,4.93,1.79,10.77,7.82,11.62,14.43.1.8.87,7.83-3.91,9.4-3.52,1.16-5.48-2.63-5.68-3.06-.34-.73-1.09-1.17-1.91-1.14-.81.04-1.52.57-1.79,1.33-.05.13-1.16,3.2-3.96,3.09-2.82-.12-3.76-2.69-3.85-2.96-.27-.87-1.09-1.45-2.02-1.4-.91.05-1.68.71-1.85,1.61-.02.11-.57,2.73-3.9,2.77h-.06c-2.99,0-3.57-2.54-3.66-3.04-.16-1.09-1.18-1.85-2.27-1.68-1.09.16-1.85,1.18-1.68,2.27.33,2.24,2.36,6.45,7.61,6.45h.11c2.78-.03,4.69-1.14,5.93-2.49,1.17,1.23,2.92,2.35,5.47,2.46,2.94.15,4.93-1.3,6.17-2.78,1.89,1.98,4.84,3.6,8.61,2.36,5.94-1.96,7.28-8.61,6.62-13.71-1.06-8.2-8.06-15.43-14.22-17.67Z"/>
      <path class="cls-8" d="M81.19,71.78c2.14,1.75,4.91,2.62,8.83,2.62,3.35,0,7.55-.63,12.93-1.88,1.61-.38,2.62-1.99,2.24-3.6-.38-1.61-1.99-2.62-3.6-2.24-9.12,2.12-14.4,2.27-16.61.46-2.01-1.64-2.53-5.91-2.57-11.99.04,0,.07.01.11.01.07,0,.14,0,.22,0l16.02-1.15c.74-.05,1.39-.38,1.88-.86l-.07.4c-.01.08-.02.17-.02.26,0,1,.62,1.89,1.55,2.26.29.11.59.17.88.17.67,0,1.33-.28,1.84-.82l2.8-3.28,4.06,1.38s.09.03.13.04c1.01.24,2.03-.16,2.61-1.02s.56-1.96-.06-2.8c-.03-.04-.06-.07-.09-.11l-2.48-2.82,2.46-2.58c.63-.74.75-1.77.31-2.63-.44-.86-1.35-1.36-2.32-1.27-.08,0-.15.02-.23.04l-3.93.98-2.12-2.96s-.06-.08-.1-.12c-.61-.69-1.55-.98-2.44-.76-.89.22-1.59.91-1.81,1.8-.03.11-.04.22-.05.33l-.09,3.49-3.8,1.45c-.05.02-.1.04-.15.07-.84.43-1.35,1.33-1.28,2.27.03.46.2.89.46,1.24l-14.23,1.02c.03-1.09.06-2.22.09-3.38l.05-1.62c.05-1.66-1.26-3.04-2.92-3.08-1.69-.05-3.04,1.26-3.08,2.92l-.05,1.62c-.39,13.67-.62,21.92,4.59,26.18ZM103.51,45.53c.57-.22.95-.76.96-1.36l.07-2.68,1.72,2.4c.36.5.99.73,1.58.58l2.65-.66-1.8,1.89c-.54.56-.55,1.44-.04,2.02l1.96,2.23-2.98-1.02c-.58-.2-1.23-.02-1.63.45l-2.1,2.47.52-3.1c.13-.79-.38-1.55-1.17-1.71l-2.38-.5,2.64-1.01Z"/>
      <path class="cls-8" d="M80.44,105.72c-1.09-.17-2.11.59-2.27,1.68-.05.31-.54,3.04-3.65,3.04h-.06c-3.13-.04-3.81-2.33-3.9-2.77-.17-.89-.93-1.54-1.84-1.6-.92-.06-1.74.51-2.03,1.37-.1.29-1.04,2.85-3.85,2.98-2.78.08-3.92-2.96-3.96-3.08-.26-.77-.96-1.3-1.77-1.35-.81-.06-1.57.4-1.92,1.13-.21.44-2.16,4.24-5.69,3.07-4.77-1.58-4.01-8.61-3.91-9.4.85-6.6,6.7-12.63,11.62-14.43,11.59-4.22,20.82,6.31,21.23,6.78.72.84,1.98.94,2.82.22.84-.72.94-1.98.23-2.82-.46-.54-11.41-13.13-25.65-7.95-6.16,2.24-13.16,9.47-14.22,17.67-.66,5.1.68,11.75,6.62,13.71,3.77,1.24,6.72-.38,8.61-2.36,1.24,1.47,3.22,2.92,6.17,2.78,2.55-.11,4.31-1.24,5.47-2.46,1.24,1.34,3.15,2.46,5.93,2.49.04,0,.07,0,.11,0,5.25,0,7.27-4.21,7.6-6.45.16-1.09-.59-2.11-1.68-2.27Z"/>
      <path class="cls-8" d="M128.49,104.7c.01-1.19-1.07-1.83-2.45-1.83h-15.15v-1.04h13.78c1.09,0,2.04-.74,2.26-1.75h0c.27-1.19-.69-2.31-1.97-2.31h-12.42c-.28,0-.5-.21-.5-.48s.22-.48.5-.48h9.45c1.19,0,2.16-.92,2.17-2.05v-.03c0-.95-.82-1.73-1.82-1.73h-9.8c-.28,0-.5-.21-.5-.48s.22-.48.5-.48h9.47c1.18,0,2.15-.91,2.15-2.04,0-.83-.81-1.49-1.67-1.49h-9.94c-.28,0-.5-.21-.5-.48s.22-.48.5-.48h10.38c1.47,0,2.53-1.34,2.14-2.68-.32-1.07-1.35-1.82-2.52-1.82h-9.46c-.06,0-.06,0-.06,0,1.03-1.26.5-3.16-1.2-3.72-1.07-.35-2.25.11-2.89,1-.67.92-1.19,1.85-1.6,2.73h-5.78l.26-.3c.75-.85.9-2.11.2-3.01-1-1.3-2.93-1.3-3.95-.15l-9.99,11.29c-.69.78-.84,2.15-.23,2.97.52.69,1.29,1.02,2.06,1.02.71,0,1.42-.29,1.91-.85l2.1-2.38v7.07c0,.12.02.23.04.35-.02.12-.04.23-.04.35,0,1.31,1.12,2.38,2.5,2.38h9.48s0,1.03,0,1.03h-13.75c-1.38,0-2.46.71-2.45,1.86.01,1.09,1.07,1.9,2.45,1.9h12c-2.99,1.61-6.42,2.83-8.96,2.83-1.45,0-3.72.35-4.28,2.3-.41,1.42.8,2.77,2.34,2.76,3.88-.02,9.26-2.68,12.65-4.6v2.23c0,1.31,1.12,2.38,2.5,2.38s2.5-1.06,2.5-2.38v-2.89c3.32,2.32,9.85,6.18,15.15,5.08,1.23-.26,2.05-1.43,1.76-2.6-.44-1.7-2.23-1.96-3.72-1.96-3.09,0-7.54-1.65-10.39-3.14h12.36c1.38,0,2.44-.71,2.45-1.93ZM106.77,97.77h-8.52c-.28,0-.5-.21-.5-.48s.22-.48.5-.48h8.52c.28,0,.5.21.5.48s-.22.48-.5.48ZM106.77,93.01h-8.52c-.28,0-.5-.21-.5-.48s.22-.48.5-.48h8.52c.28,0,.5.21.5.48s-.22.48-.5.48ZM106.83,88.53h-8.52c-.28,0-.5-.21-.5-.48s.22-.48.5-.48h8.52c.28,0,.5.21.5.48s-.22.48-.5.48Z"/>
    </g>
  </g>
  <g id="_左翼の星" data-name="左翼の星">
    <g id="_黄色い星" data-name="黄色い星">
      <line class="cls-2" x1="194.4" y1="93.01" x2="198.4" y2="93.01"/>
      <line class="cls-2" x1="196.4" y1="90.01" x2="196.4" y2="96.01"/>
    </g>
    <g id="_黄色い星-2" data-name="黄色い星">
      <line class="cls-2" x1="198.4" y1="99.29" x2="202.4" y2="99.29"/>
      <line class="cls-2" x1="200.4" y1="97.29" x2="200.4" y2="101.29"/>
    </g>
    <g id="_黄色い星-3" data-name="黄色い星">
      <line class="cls-2" x1="175.85" y1="100.29" x2="177.85" y2="100.29"/>
      <line class="cls-2" x1="176.85" y1="99.29" x2="176.85" y2="101.29"/>
    </g>
    <g id="_黄色い星-4" data-name="黄色い星">
      <line class="cls-7" x1="187.73" y1="97.77" x2="189.73" y2="97.77"/>
      <line class="cls-7" x1="188.73" y1="96.77" x2="188.73" y2="98.77"/>
    </g>
    <g id="_黄色い星-5" data-name="黄色い星">
      <line class="cls-3" x1="190.26" y1="101.99" x2="192.26" y2="101.99"/>
      <line class="cls-3" x1="191.26" y1="100.99" x2="191.26" y2="102.99"/>
    </g>
    <g id="_黄色い星-6" data-name="黄色い星">
      <line class="cls-3" x1="181.21" y1="101.14" x2="183.21" y2="101.14"/>
      <line class="cls-3" x1="182.21" y1="100.14" x2="182.21" y2="102.14"/>
    </g>
  </g>
  <g id="_右翼の星" data-name="右翼の星">
    <g id="_黄色い星-7" data-name="黄色い星">
      <line class="cls-2" x1="57.1" y1="93.85" x2="61.1" y2="93.85"/>
      <line class="cls-2" x1="59.1" y1="90.85" x2="59.1" y2="96.85"/>
    </g>
    <g id="_黄色い星-8" data-name="黄色い星">
      <line class="cls-1" x1="63.91" y1="93.54" x2="65.91" y2="93.54"/>
      <line class="cls-1" x1="64.91" y1="92.54" x2="64.91" y2="94.54"/>
    </g>
    <g id="_黄色い星-9" data-name="黄色い星">
      <line class="cls-7" x1="60.8" y1="97.9" x2="62.8" y2="97.9"/>
      <line class="cls-7" x1="61.8" y1="96.9" x2="61.8" y2="98.9"/>
    </g>
    <g id="_黄色い星-10" data-name="黄色い星">
      <line class="cls-2" x1="61.8" y1="104.21" x2="63.8" y2="104.21"/>
      <line class="cls-2" x1="62.8" y1="103.21" x2="62.8" y2="105.21"/>
    </g>
    <g id="_黄色い星-11" data-name="黄色い星">
      <line class="cls-7" x1="69.65" y1="99.85" x2="71.65" y2="99.85"/>
      <line class="cls-7" x1="70.65" y1="98.85" x2="70.65" y2="100.85"/>
    </g>
    <g id="_黄色い星-12" data-name="黄色い星">
      <line class="cls-1" x1="74.21" y1="104.21" x2="76.21" y2="104.21"/>
      <line class="cls-1" x1="75.21" y1="103.21" x2="75.21" y2="105.21"/>
    </g>
    <g id="_黄色い星-13" data-name="黄色い星">
      <line class="cls-1" x1="52.15" y1="104.01" x2="54.15" y2="104.01"/>
      <line class="cls-1" x1="53.15" y1="103.01" x2="53.15" y2="105.01"/>
    </g>
    <g id="_黄色い星-14" data-name="黄色い星">
      <line class="cls-7" x1="49.34" y1="99.85" x2="51.34" y2="99.85"/>
      <line class="cls-7" x1="50.34" y1="98.85" x2="50.34" y2="100.85"/>
    </g>
  </g>
</svg>